HIERARCHY
ROOT Hips
{
	OFFSET -0.150001 87.211151 2.220142
	CHANNELS 6 Xposition Yposition Zposition Xrotation Yrotation Zrotation
	JOINT Pelvis
	{
		OFFSET 0.000000 0.000000 0.000000
		CHANNELS 3 Xrotation Yrotation Zrotation
		JOINT LeftUpLeg
		{
			OFFSET 12.016979 -9.376381 -2.439418
			CHANNELS 3 Xrotation Yrotation Zrotation
			JOINT LeftLeg
			{
				OFFSET -0.817380 -32.836784 2.110571
				CHANNELS 3 Xrotation Yrotation Zrotation
				JOINT LeftFoot
				{
					OFFSET -0.783454 -32.055588 -0.570427
					CHANNELS 3 Xrotation Yrotation Zrotation
					JOINT LeftToeBase
					{
						OFFSET 0.728348 -11.045863 13.180651
						CHANNELS 3 Xrotation Yrotation Zrotation
						End Site
						{
							OFFSET 0.000000 17.212528 0.000000
						}
					}
				}
				JOINT LeftPantLeg
				{
					OFFSET -0.409309 -16.703976 -3.143619
					CHANNELS 3 Xrotation Yrotation Zrotation
					End Site
					{
						OFFSET 0.000000 24.536182 0.000000
					}
				}
			}
			JOINT Left_Butt
			{
				OFFSET -6.595482 1.489731 -3.183693
				CHANNELS 3 Xrotation Yrotation Zrotation
				End Site
				{
					OFFSET 0.000000 20.194176 0.000000
				}
			}
		}
		JOINT RightUpLeg
		{
			OFFSET -11.716976 -9.376381 -2.439418
			CHANNELS 3 Xrotation Yrotation Zrotation
			JOINT RightLeg
			{
				OFFSET 0.806788 -32.837044 2.110606
				CHANNELS 3 Xrotation Yrotation Zrotation
				JOINT RightFoot
				{
					OFFSET 0.794045 -32.055328 -0.570462
					CHANNELS 3 Xrotation Yrotation Zrotation
					JOINT RightToeBase
					{
						OFFSET -0.728348 -11.045862 13.180651
						CHANNELS 3 Xrotation Yrotation Zrotation
						End Site
						{
							OFFSET 0.000000 17.212528 0.000000
						}
					}
				}
				JOINT RightPantLeg
				{
					OFFSET 0.420190 -16.703716 -3.143653
					CHANNELS 3 Xrotation Yrotation Zrotation
					End Site
					{
						OFFSET 0.000000 24.536198 0.000000
					}
				}
			}
			JOINT Right_Butt
			{
				OFFSET 6.595978 1.489731 -3.183693
				CHANNELS 3 Xrotation Yrotation Zrotation
				End Site
				{
					OFFSET 0.000000 20.194397 0.000000
				}
			}
		}
	}
	JOINT Spine
	{
		OFFSET -0.062379 7.848404 3.918342
		CHANNELS 3 Xrotation Yrotation Zrotation
		JOINT Spine1
		{
			OFFSET -0.072775 11.422256 0.713384
			CHANNELS 3 Xrotation Yrotation Zrotation
			JOINT Spine2
			{
				OFFSET -0.083171 13.054008 -1.931563
				CHANNELS 3 Xrotation Yrotation Zrotation
				JOINT Neck
				{
					OFFSET -0.092225 14.121773 -5.138807
					CHANNELS 3 Xrotation Yrotation Zrotation
					JOINT Head
					{
						OFFSET 0.000171 10.447388 -0.842032
						CHANNELS 3 Xrotation Yrotation Zrotation
						JOINT Visor
						{
							OFFSET 0.457139 25.671173 16.550411
							CHANNELS 3 Xrotation Yrotation Zrotation
							End Site
							{
								OFFSET 0.000000 26.061493 0.000000
							}
						}
						JOINT HairMidA
						{
							OFFSET 0.459357 31.585358 8.437352
							CHANNELS 3 Xrotation Yrotation Zrotation
							End Site
							{
								OFFSET 0.000000 26.061493 0.000000
							}
						}
						JOINT HairMidB
						{
							OFFSET 0.464023 33.309235 -8.389654
							CHANNELS 3 Xrotation Yrotation Zrotation
							End Site
							{
								OFFSET 0.000000 26.061493 0.000000
							}
						}
						JOINT HairMidC
						{
							OFFSET 0.466553 27.991165 -17.375053
							CHANNELS 3 Xrotation Yrotation Zrotation
							End Site
							{
								OFFSET 0.000000 26.061493 0.000000
							}
						}
						JOINT HairMidD
						{
							OFFSET 0.467668 17.888062 -21.169472
							CHANNELS 3 Xrotation Yrotation Zrotation
							End Site
							{
								OFFSET 0.000000 26.061493 0.000000
							}
						}
						JOINT HairMidE
						{
							OFFSET 5.325659 3.514648 -14.369741
							CHANNELS 3 Xrotation Yrotation Zrotation
							End Site
							{
								OFFSET 0.000000 26.061493 0.000000
							}
						}
						JOINT HairMidF
						{
							OFFSET -4.394134 3.514587 -14.372442
							CHANNELS 3 Xrotation Yrotation Zrotation
							End Site
							{
								OFFSET 0.000000 26.061493 0.000000
							}
						}
						JOINT HairLeftA
						{
							OFFSET 15.319869 25.746521 2.623347
							CHANNELS 3 Xrotation Yrotation Zrotation
							End Site
							{
								OFFSET 0.000000 26.061493 0.000000
							}
						}
						JOINT HairLeftB
						{
							OFFSET 12.619466 29.289368 -8.731475
							CHANNELS 3 Xrotation Yrotation Zrotation
							End Site
							{
								OFFSET 0.000000 26.061493 0.000000
							}
						}
						JOINT HairLeftC
						{
							OFFSET 15.714844 15.959915 2.909834
							CHANNELS 3 Xrotation Yrotation Zrotation
							End Site
							{
								OFFSET 0.000000 26.061493 0.000000
							}
						}
						JOINT HairLeftD
						{
							OFFSET 16.101723 18.437363 -7.553188
							CHANNELS 3 Xrotation Yrotation Zrotation
							End Site
							{
								OFFSET 0.000000 26.061493 0.000000
							}
						}
						JOINT HairLeftE
						{
							OFFSET 9.731930 17.914993 -18.316845
							CHANNELS 3 Xrotation Yrotation Zrotation
							End Site
							{
								OFFSET 0.000000 26.061493 0.000000
							}
						}
						JOINT HairLeftF
						{
							OFFSET 11.204299 4.953644 -9.668147
							CHANNELS 3 Xrotation Yrotation Zrotation
							End Site
							{
								OFFSET 0.000000 26.061493 0.000000
							}
						}
						JOINT HairRightA
						{
							OFFSET -14.397850 25.746338 2.615088
							CHANNELS 3 Xrotation Yrotation Zrotation
							End Site
							{
								OFFSET 0.000000 26.061493 0.000000
							}
						}
						JOINT HairRightB
						{
							OFFSET -11.691177 29.289230 -8.738231
							CHANNELS 3 Xrotation Yrotation Zrotation
							End Site
							{
								OFFSET 0.000000 26.061493 0.000000
							}
						}
						JOINT HairRightC
						{
							OFFSET -14.792866 15.959732 2.901356
							CHANNELS 3 Xrotation Yrotation Zrotation
							End Site
							{
								OFFSET 0.000000 26.061493 0.000000
							}
						}
						JOINT HairRightD
						{
							OFFSET -15.173956 18.437164 -7.561880
							CHANNELS 3 Xrotation Yrotation Zrotation
							End Site
							{
								OFFSET 0.000000 26.061493 0.000000
							}
						}
						JOINT HairRightE
						{
							OFFSET -8.798178 17.914886 -18.321995
							CHANNELS 3 Xrotation Yrotation Zrotation
							End Site
							{
								OFFSET 0.000000 26.061493 0.000000
							}
						}
						JOINT HairRightF
						{
							OFFSET -10.275196 4.953506 -9.674116
							CHANNELS 3 Xrotation Yrotation Zrotation
							End Site
							{
								OFFSET 0.000000 26.061493 0.000000
							}
						}
					}
				}
				JOINT LeftShoulder
				{
					OFFSET 5.133502 7.341248 -1.867558
					CHANNELS 3 Xrotation Yrotation Zrotation
					JOINT LeftArm
					{
						OFFSET 8.073057 0.933060 -2.176591
						CHANNELS 3 Xrotation Yrotation Zrotation
						JOINT LeftForeArm
						{
							OFFSET 31.170431 -0.110054 -2.516341
							CHANNELS 3 Xrotation Yrotation Zrotation
							JOINT LeftHand
							{
								OFFSET 31.758984 -0.038307 -0.873058
								CHANNELS 3 Xrotation Yrotation Zrotation
								JOINT LeftHandThumb1
								{
									OFFSET 3.014229 -1.208282 4.882164
									CHANNELS 3 Xrotation Yrotation Zrotation
									JOINT LeftHandThumb2
									{
										OFFSET 2.436516 -1.204407 1.408011
										CHANNELS 3 Xrotation Yrotation Zrotation
										JOINT LeftHandThumb3
										{
											OFFSET 2.254616 -1.535309 0.973410
											CHANNELS 3 Xrotation Yrotation Zrotation
											End Site
											{
												OFFSET 0.000000 2.896202 0.000000
											}
										}
									}
								}
								JOINT LeftHandIndex1
								{
									OFFSET 8.516617 0.916695 3.193901
									CHANNELS 3 Xrotation Yrotation Zrotation
									JOINT LeftHandIndex2
									{
										OFFSET 3.305534 -0.513794 0.148831
										CHANNELS 3 Xrotation Yrotation Zrotation
										JOINT LeftHandIndex3
										{
											OFFSET 3.149483 -1.032883 -0.004956
											CHANNELS 3 Xrotation Yrotation Zrotation
											End Site
											{
												OFFSET 0.000000 3.314529 0.000000
											}
										}
									}
								}
								JOINT LeftHandMiddle1
								{
									OFFSET 8.085388 0.797127 0.009041
									CHANNELS 3 Xrotation Yrotation Zrotation
									JOINT LeftHandMiddle2
									{
										OFFSET 4.055710 -0.878586 -0.370356
										CHANNELS 3 Xrotation Yrotation Zrotation
										JOINT LeftHandMiddle3
										{
											OFFSET 2.822098 -1.032654 -0.279992
											CHANNELS 3 Xrotation Yrotation Zrotation
											End Site
											{
												OFFSET 0.000000 3.018112 0.000000
											}
										}
									}
								}
								JOINT LeftHandRing1
								{
									OFFSET 8.600105 0.164856 -2.793547
									CHANNELS 3 Xrotation Yrotation Zrotation
									JOINT LeftHandRing2
									{
										OFFSET 3.528015 -0.934578 -0.396605
										CHANNELS 3 Xrotation Yrotation Zrotation
										JOINT LeftHandRing3
										{
											OFFSET 2.593292 -0.815781 -0.236382
											CHANNELS 3 Xrotation Yrotation Zrotation
											End Site
											{
												OFFSET 0.000000 2.728836 0.000000
											}
										}
									}
								}
								JOINT LeftHandPinky1
								{
									OFFSET 8.001732 -1.051186 -4.918592
									CHANNELS 3 Xrotation Yrotation Zrotation
									JOINT LeftHandPinky2
									{
										OFFSET 2.860458 -0.755989 -0.813781
										CHANNELS 3 Xrotation Yrotation Zrotation
										JOINT LeftHandPinky3
										{
											OFFSET 2.324455 -0.524551 -0.249960
											CHANNELS 3 Xrotation Yrotation Zrotation
											End Site
											{
												OFFSET 0.000000 2.395981 0.000000
											}
										}
									}
								}
							}
							JOINT LeftSleeve
							{
								OFFSET 19.689919 -0.223915 -0.065017
								CHANNELS 3 Xrotation Yrotation Zrotation
								End Site
								{
									OFFSET 0.000000 25.731148 0.000000
								}
							}
						}
					}
				}
				JOINT RightShoulder
				{
					OFFSET -4.395899 7.341194 -1.870206
					CHANNELS 3 Xrotation Yrotation Zrotation
					JOINT RightArm
					{
						OFFSET -8.071857 0.932961 -2.181078
						CHANNELS 3 Xrotation Yrotation Zrotation
						JOINT RightForeArm
						{
							OFFSET -31.169025 -0.110435 -2.533666
							CHANNELS 3 Xrotation Yrotation Zrotation
							JOINT RightHand
							{
								OFFSET -31.758495 -0.038696 -0.890710
								CHANNELS 3 Xrotation Yrotation Zrotation
								JOINT RightHandThumb1
								{
									OFFSET -3.016930 -1.208313 4.880487
									CHANNELS 3 Xrotation Yrotation Zrotation
									JOINT RightHandThumb2
									{
										OFFSET -2.437279 -1.204437 1.406657
										CHANNELS 3 Xrotation Yrotation Zrotation
										JOINT RightHandThumb3
										{
											OFFSET -2.255142 -1.535332 0.972157
											CHANNELS 3 Xrotation Yrotation Zrotation
											End Site
											{
												OFFSET 0.000000 2.896202 0.000000
											}
										}
									}
								}
								JOINT RightHandIndex1
								{
									OFFSET -8.518402 0.916595 3.189166
									CHANNELS 3 Xrotation Yrotation Zrotation
									JOINT RightHandIndex2
									{
										OFFSET -3.305611 -0.513840 0.146994
										CHANNELS 3 Xrotation Yrotation Zrotation
										JOINT RightHandIndex3
										{
											OFFSET -3.149467 -1.032913 -0.006706
											CHANNELS 3 Xrotation Yrotation Zrotation
											End Site
											{
												OFFSET 0.000000 3.314529 0.000000
											}
										}
									}
								}
								JOINT RightHandMiddle1
								{
									OFFSET -8.085396 0.797043 0.004547
									CHANNELS 3 Xrotation Yrotation Zrotation
									JOINT RightHandMiddle2
									{
										OFFSET -4.055504 -0.878647 -0.372611
										CHANNELS 3 Xrotation Yrotation Zrotation
										JOINT RightHandMiddle3
										{
											OFFSET -2.821922 -1.032684 -0.281561
											CHANNELS 3 Xrotation Yrotation Zrotation
											End Site
											{
												OFFSET 0.000000 3.018112 0.000000
											}
										}
									}
								}
								JOINT RightHandRing1
								{
									OFFSET -8.598557 0.164757 -2.798328
									CHANNELS 3 Xrotation Yrotation Zrotation
									JOINT RightHandRing2
									{
										OFFSET -3.527779 -0.934624 -0.398566
										CHANNELS 3 Xrotation Yrotation Zrotation
										JOINT RightHandRing3
										{
											OFFSET -2.593147 -0.815811 -0.237823
											CHANNELS 3 Xrotation Yrotation Zrotation
											End Site
											{
												OFFSET 0.000000 2.728836 0.000000
											}
										}
									}
								}
								JOINT RightHandPinky1
								{
									OFFSET -7.998985 -1.051277 -4.923038
									CHANNELS 3 Xrotation Yrotation Zrotation
									JOINT RightHandPinky2
									{
										OFFSET -2.859993 -0.756027 -0.815371
										CHANNELS 3 Xrotation Yrotation Zrotation
										JOINT RightHandPinky3
										{
											OFFSET -2.324310 -0.524582 -0.251251
											CHANNELS 3 Xrotation Yrotation Zrotation
											End Site
											{
												OFFSET 0.000000 2.395981 0.000000
											}
										}
									}
								}
							}
							JOINT RightSleeve
							{
								OFFSET -19.690090 -0.224159 -0.075961
								CHANNELS 3 Xrotation Yrotation Zrotation
								End Site
								{
									OFFSET 0.000000 25.731255 0.000000
								}
							}
						}
					}
				}
				JOINT Hood
				{
					OFFSET 0.369716 14.447853 -5.317849
					CHANNELS 3 Xrotation Yrotation Zrotation
					JOINT Hood1
					{
						OFFSET 0.001672 -5.553833 -5.895097
						CHANNELS 3 Xrotation Yrotation Zrotation
						JOINT Hood2
						{
							OFFSET -0.000161 -8.380455 0.763632
							CHANNELS 3 Xrotation Yrotation Zrotation
							End Site
							{
								OFFSET 0.000000 8.415169 0.000000
							}
						}
					}
				}
				JOINT Left_Breast
				{
					OFFSET 5.682508 3.120148 3.188847
					CHANNELS 3 Xrotation Yrotation Zrotation
					End Site
					{
						OFFSET 0.000000 10.528572 0.000000
					}
				}
				JOINT Right_Breast
				{
					OFFSET -4.947578 3.120087 3.185892
					CHANNELS 3 Xrotation Yrotation Zrotation
					End Site
					{
						OFFSET 0.000000 10.528572 0.000000
					}
				}
				JOINT Whistle
				{
					OFFSET 0.368230 11.471275 0.095403
					CHANNELS 3 Xrotation Yrotation Zrotation
					JOINT Whistle1
					{
						OFFSET -0.002040 -6.349861 7.479819
						CHANNELS 3 Xrotation Yrotation Zrotation
						JOINT Whistle2
						{
							OFFSET -0.001261 -8.217644 4.717561
							CHANNELS 3 Xrotation Yrotation Zrotation
							End Site
							{
								OFFSET 0.000000 9.475494 0.000000
							}
						}
					}
				}
			}
		}
		JOINT Belly
		{
			OFFSET 0.212380 1.592987 3.163679
			CHANNELS 3 Xrotation Yrotation Zrotation
			End Site
			{
				OFFSET 0.000000 7.496605 0.000000
			}
		}
	}
	JOINT FitGrandmaFacialAnim_Joint
	{
		OFFSET 1.280120 -86.211151 -1.082839
		CHANNELS 3 Xrotation Yrotation Zrotation
		End Site
		{
			OFFSET 0.000000 31.666611 0.000000
		}
	}
}
MOTION
Frames: 4
Frame Time: 0.016667
1.039156 85.070496 2.910263 4.705699 22.721189 -2.178725 -0.000001 -6.467571 0.000000 -9.920765 9.749269 -4.844101 28.447043 9.633181 -0.133273 -20.261836 -2.540994 11.471035 -0.000000 -0.000003 0.000000 -0.000001 0.000000 0.000000 0.000001 -0.000000 0.000000 -8.574469 -7.870074 3.766934 26.234656 -0.584976 -8.045603 -17.560992 -0.638372 2.367397 0.000000 0.000001 0.000000 -0.000000 0.000001 -0.000000 0.000000 -0.000001 0.000000 -9.329414 -16.166487 -0.048277 4.636102 -1.592019 -0.303832 4.616003 -1.618330 -0.429758 3.210326 -2.116575 2.121248 7.396629 -7.821496 0.693633 -0.000000 0.000000 -0.000000 -0.000000 0.000000 -0.000000 -0.000000 0.000000 -0.000000 -0.000000 0.000000 -0.000000 -0.000000 0.000000 -0.000000 -0.000000 0.000000 -0.000000 -0.000000 0.000000 -0.000000 -0.000000 0.000000 -0.000000 -0.000000 0.000000 -0.000000 -0.000000 0.000000 -0.000000 -0.000000 0.000000 -0.000000 -0.000000 0.000000 -0.000000 -0.000000 0.000000 -0.000000 -0.000000 0.000000 -0.000000 -0.000000 0.000000 -0.000000 -0.000000 0.000000 -0.000000 -0.000000 0.000000 -0.000000 -0.000000 0.000000 -0.000000 -0.000000 0.000000 -0.000000 1.305226 -1.808907 2.233764 -24.011450 -41.532505 -58.004692 0.843520 -103.729284 0.939250 43.967540 -22.962227 30.250672 -6.848961 0.696279 11.797355 -1.073617 11.766998 7.068103 0.000000 -0.000000 0.000002 -0.313571 1.921815 9.239350 -0.712836 -3.071272 4.070830 -0.000001 -0.000000 0.000001 0.866097 -5.715521 12.657488 0.002206 -0.920715 2.605752 -0.000001 -0.000001 -0.000000 1.190716 -6.816349 15.259831 -0.073976 0.607988 -2.584230 -0.000001 0.000001 0.000001 2.756111 -11.940983 14.626013 0.332075 4.656671 -6.578113 -0.000001 0.000000 0.000001 -0.000001 0.000000 0.000002 -0.063058 -9.130679 7.880155 1.462292 -8.932507 43.146148 0.526423 111.424066 -0.636589 41.982229 -9.102223 38.805450 -6.660827 4.163402 -12.182681 -0.191188 -14.015707 -6.487356 0.000002 -0.000001 0.000001 -0.109123 -1.423448 -4.274243 -0.856388 3.523125 0.901926 0.000001 -0.000000 0.000001 0.404492 6.288698 -7.659281 -0.651050 1.375290 2.314445 0.000000 0.000000 -0.000002 0.635003 7.412692 -10.269462 -0.718171 -0.184313 7.507507 -0.000000 -0.000001 0.000003 1.547920 16.691710 -10.115037 0.515482 -8.120336 12.023931 -0.000000 0.000001 0.000001 -0.000004 -0.000001 0.000000 0.000000 -0.000000 0.000000 0.000000 -0.000000 0.000000 0.000000 -0.000000 0.000000 0.000000 -0.000000 0.000000 0.000000 -0.000000 0.000000 0.000000 -0.000000 0.000000 0.000000 -0.000000 0.000000 0.000000 -0.000000 0.000000 -0.000000 0.000000 0.000000 -0.000001 0.000001 0.000000 
1.356930 85.054695 2.981688 5.530019 24.428207 -3.453483 -0.000000 -6.467570 0.000000 -13.156489 9.870742 -3.559975 32.200456 7.245303 1.191445 -18.832628 -1.811818 8.804630 -0.000000 -0.000001 0.000000 0.000001 0.000001 -0.000001 0.000000 -0.000001 0.000000 -6.852809 -7.504720 3.794083 22.744359 -1.279374 -5.871577 -17.316309 -0.636967 2.394704 0.000000 0.000001 0.000000 0.000001 0.000000 -0.000001 -0.000000 0.000001 0.000000 -10.201586 -16.732321 -0.440208 5.009729 -1.598643 0.816571 5.012416 -1.653339 0.675420 2.880192 -2.291888 1.783468 7.576900 -8.889892 -0.176367 -0.000000 -0.000000 0.000000 -0.000000 -0.000000 0.000000 -0.000000 -0.000000 0.000000 -0.000000 -0.000000 0.000000 -0.000000 -0.000000 0.000000 -0.000000 -0.000000 0.000000 -0.000000 -0.000000 0.000000 -0.000000 -0.000000 0.000000 -0.000000 -0.000000 0.000000 -0.000000 -0.000000 0.000000 -0.000000 -0.000000 0.000000 -0.000000 -0.000000 0.000000 -0.000000 -0.000000 0.000000 -0.000000 -0.000000 0.000000 -0.000000 -0.000000 0.000000 -0.000000 -0.000000 0.000000 -0.000000 -0.000000 0.000000 -0.000000 -0.000000 0.000000 -0.000000 -0.000000 0.000000 1.122199 -1.375025 2.896370 -22.769911 -45.111794 -56.315282 0.848458 -103.656494 0.944063 42.058608 -24.286051 29.652368 -6.849226 0.699665 11.796428 -1.073618 11.766996 7.068100 -0.000001 0.000000 0.000000 -0.309709 1.913161 9.153763 -0.715106 -3.079717 3.981429 -0.000000 -0.000000 0.000000 0.858543 -5.725925 12.571728 -0.009260 -0.929591 2.517044 -0.000001 0.000001 -0.000000 1.181507 -6.827234 15.173943 -0.085228 0.599648 -2.672722 -0.000001 0.000001 0.000003 2.739132 -11.954194 14.539173 0.318894 4.647216 -6.665263 -0.000000 -0.000002 -0.000003 -0.000004 0.000000 -0.000001 -0.110409 -10.118203 8.339594 0.563223 -11.897374 41.743678 0.557393 110.334883 -0.665591 41.456598 -11.057351 36.694491 -6.772274 3.017720 -12.195351 -0.112481 -14.722193 -6.501808 0.000001 -0.000001 0.000000 -0.109122 -1.423447 -4.274243 -0.856390 3.523125 0.901930 0.000001 0.000001 -0.000001 0.404492 6.288699 -7.659284 -0.651049 1.375289 2.314445 0.000001 -0.000000 0.000001 0.635005 7.412692 -10.269461 -0.718170 -0.184312 7.507510 0.000001 -0.000000 0.000002 1.547921 16.691709 -10.115035 0.515480 -8.120336 12.023932 -0.000000 -0.000000 0.000000 0.000002 0.000000 -0.000000 -0.000000 0.000000 0.000000 -0.000000 0.000000 0.000000 -0.000000 0.000000 0.000000 -0.000000 0.000000 0.000000 -0.000000 0.000000 0.000000 -0.000000 0.000000 0.000000 -0.000000 0.000000 0.000000 -0.000000 0.000000 0.000000 0.000000 -0.000000 -0.000000 -0.000000 0.000001 0.000000 
1.637727 85.040428 3.051044 6.405341 25.726922 -4.747118 0.000000 -6.467571 0.000000 -17.447134 9.352595 -1.459481 36.937827 3.986410 2.006187 -14.910947 -0.623804 3.823211 -0.000000 -0.000001 -0.000000 -0.000001 -0.000001 0.000000 0.000001 0.000001 -0.000000 -5.387562 -7.303514 3.899628 19.494292 -2.185617 -3.695910 -16.818888 -0.519205 1.901118 0.000000 -0.000000 0.000000 -0.000001 0.000000 -0.000001 -0.000000 0.000000 -0.000000 -10.930768 -16.973169 -0.588639 5.259095 -1.547638 1.776884 5.282378 -1.631459 1.628381 2.552511 -2.484928 1.482319 7.859774 -10.020497 -1.000447 0.000000 0.000000 -0.000000 0.000000 0.000000 -0.000000 0.000000 0.000000 -0.000000 0.000000 0.000000 -0.000000 0.000000 0.000000 -0.000000 0.000000 0.000000 -0.000000 0.000000 0.000000 -0.000000 0.000000 0.000000 -0.000000 0.000000 0.000000 -0.000000 0.000000 0.000000 -0.000000 0.000000 0.000000 -0.000000 0.000000 0.000000 -0.000000 0.000000 0.000000 -0.000000 0.000000 0.000000 -0.000000 0.000000 0.000000 -0.000000 0.000000 0.000000 -0.000000 0.000000 0.000000 -0.000000 0.000000 0.000000 -0.000000 0.000000 0.000000 -0.000000 1.186083 -1.425574 3.585223 -21.212201 -48.345838 -53.825347 0.846064 -103.694101 0.941715 42.644112 -23.720982 30.426089 -6.849450 0.701935 11.796801 -1.073620 11.766996 7.068104 -0.000000 0.000000 -0.000000 -0.307802 1.908864 9.111316 -0.716204 -3.083797 3.938228 0.000001 0.000000 -0.000002 0.854785 -5.731082 12.529197 -0.014792 -0.933869 2.474191 -0.000000 -0.000000 0.000002 1.176931 -6.832628 15.131360 -0.090664 0.595623 -2.715502 -0.000001 -0.000001 -0.000000 2.730703 -11.960735 14.496125 0.312522 4.642644 -6.707373 0.000000 0.000000 0.000000 0.000001 -0.000001 -0.000000 -0.134167 -11.010195 8.880422 -0.558486 -14.679127 40.482005 0.600759 108.978790 -0.706560 40.705021 -13.485290 34.030601 -6.958558 1.106840 -12.221410 0.143604 -17.015145 -6.542123 -0.000001 0.000001 -0.000000 -0.109121 -1.423449 -4.274240 -0.856390 3.523126 0.901929 -0.000003 -0.000000 0.000001 0.404494 6.288700 -7.659284 -0.651049 1.375290 2.314446 0.000001 -0.000001 0.000003 0.635006 7.412692 -10.269460 -0.718172 -0.184313 7.507507 0.000001 -0.000000 -0.000001 1.547920 16.691712 -10.115037 0.515482 -8.120334 12.023932 0.000000 -0.000001 0.000000 0.000003 0.000000 0.000000 0.000001 0.000001 -0.000000 0.000001 0.000001 -0.000000 0.000001 0.000001 -0.000000 0.000001 0.000001 -0.000000 0.000001 0.000001 -0.000000 0.000001 0.000001 -0.000000 0.000001 0.000001 -0.000000 0.000001 0.000001 -0.000000 -0.000000 -0.000000 0.000000 0.000000 -0.000001 -0.000000 
1.873489 84.966858 3.119734 7.263430 26.563570 -6.056689 -0.000000 -6.467575 -0.000000 -21.088960 8.883969 0.054056 40.886633 -0.169029 2.445082 -12.192058 -0.306560 3.747692 0.000000 0.000001 0.000000 -0.000001 -0.000001 -0.000000 -0.000000 -0.000000 -0.000001 -4.164602 -7.455649 4.257501 16.727893 -3.157670 -1.803718 -16.407433 -0.322316 0.983721 0.000000 -0.000000 -0.000000 -0.000000 0.000000 0.000000 -0.000000 -0.000000 -0.000000 -11.435004 -16.903974 -0.275122 5.330513 -1.459979 2.381428 5.365314 -1.564760 2.234580 2.340009 -2.696115 1.292712 8.182992 -11.133919 -1.482076 0.000002 0.000000 -0.000000 0.000002 0.000000 -0.000000 0.000002 0.000000 -0.000000 0.000002 0.000000 -0.000000 0.000002 0.000000 -0.000000 0.000002 0.000000 -0.000000 0.000002 0.000000 -0.000000 0.000002 0.000000 -0.000000 0.000002 0.000000 -0.000000 0.000002 0.000000 -0.000000 0.000002 0.000000 -0.000000 0.000002 0.000000 -0.000000 0.000002 0.000000 -0.000000 0.000002 0.000000 -0.000000 0.000002 0.000000 -0.000000 0.000002 0.000000 -0.000000 0.000002 0.000000 -0.000000 0.000002 0.000000 -0.000000 0.000002 0.000000 -0.000000 1.308543 -1.578316 4.260354 -19.180559 -51.370314 -50.727234 0.838780 -103.806670 0.934644 44.189254 -22.328155 31.792645 -6.849616 0.703492 11.797501 -1.073619 11.766997 7.068100 -0.000002 -0.000001 -0.000002 -0.306932 1.906897 9.091855 -0.716694 -3.085609 3.919082 -0.000000 -0.000001 -0.000001 0.853060 -5.733443 12.509694 -0.017246 -0.935771 2.455186 -0.000001 0.000001 0.000001 1.174829 -6.835103 15.111805 -0.093077 0.593840 -2.734439 -0.000000 0.000000 0.000001 2.726830 -11.963735 14.476354 0.309702 4.640620 -6.726052 -0.000000 0.000000 0.000001 -0.000000 0.000002 0.000003 -0.170225 -11.858350 9.574804 -1.912015 -17.121146 39.335531 0.664049 107.286166 -0.766844 39.923962 -15.302165 31.551792 -7.182022 -1.173562 -12.260659 0.493920 -20.126467 -6.580238 -0.000001 0.000000 -0.000000 -0.109124 -1.423447 -4.274240 -0.856390 3.523123 0.901929 0.000001 -0.000001 0.000000 0.404491 6.288697 -7.659285 -0.651048 1.375288 2.314444 0.000001 0.000002 0.000000 0.635004 7.412692 -10.269462 -0.718171 -0.184312 7.507508 -0.000001 0.000000 -0.000001 1.547919 16.691710 -10.115038 0.515483 -8.120336 12.023933 0.000001 -0.000001 0.000002 0.000001 0.000000 -0.000000 0.000000 -0.000000 -0.000000 0.000000 -0.000000 -0.000000 0.000000 -0.000000 -0.000000 0.000000 -0.000000 -0.000000 0.000000 -0.000000 -0.000000 0.000000 -0.000000 -0.000000 0.000000 -0.000000 -0.000000 0.000000 -0.000000 -0.000000 0.000000 0.000000 0.000000 0.000000 -0.000000 -0.000000 
